<svg xmlns="http://www.w3.org/2000/svg" viewBox="0 0 2092.54 748.51"><defs><style>.cls-1{font-size:659.22px;letter-spacing:0.41em;}.cls-1,.cls-7{fill:teal;font-family:GillSansMT, Gill Sans MT;}.cls-2{font-size:57.1px;stroke:#8e9139;font-family:Cambria-Bold, Cambria;font-weight:700;letter-spacing:0.05em;}.cls-10,.cls-2{fill:#ffe15d;}.cls-11,.cls-2,.cls-6,.cls-8{stroke-miterlimit:10;}.cls-3{letter-spacing:-0.03em;}.cls-4{letter-spacing:0em;}.cls-5{letter-spacing:0.02em;}.cls-11,.cls-6,.cls-8{fill:none;}.cls-11,.cls-6{stroke:teal;}.cls-6{stroke-width:5px;}.cls-7{font-size:659.22px;letter-spacing:0.41em;}.cls-8{stroke:#e1e15d;stroke-width:15px;}.cls-9{fill:#e6cba8;}.cls-11{stroke-width:6px;}</style></defs><g id="Layer_2" data-name="Layer 2"><g id="Logo"><text class="cls-1" transform="translate(1535.74 562.46) scale(0.83 1)">T</text><text class="cls-2" transform="translate(538.62 619.22) scale(1.53 1)">GIRMA GI<tspan class="cls-3" x="272.49" y="0">F</tspan><tspan class="cls-4" x="301.97" y="0">A</tspan><tspan class="cls-5" x="339.04" y="0">W</tspan><tspan x="395.23" y="0">OSSEN TRADING</tspan></text><line class="cls-6" x1="543.9" y1="632.62" x2="1850.52" y2="632.62"/><text class="cls-7" transform="translate(505.01 554.4)">G</text><text class="cls-7" transform="translate(979.52 554.4)">G</text><ellipse class="cls-8" cx="212.69" cy="362.91" rx="187.64" ry="187.24"/><path class="cls-9" d="M281.12,510.5c19.3-8.33,36.26-19.92,50.11-35.83L362,429.39c6-23.12,11.93-46.24,18.44-71.44,1.17,4.61,3.38,8.76,3.06,12.69-5,59.68-31.7,106.46-83.35,138.18l-10.55,6.48c-29.23,12.79-59.42,19.19-91.67,16.8-76.64-5.69-143.37-67.39-154-143.66-1.34-9.66-1.57-19.47-2.32-29.22l4.69-.72c.81,2.69,2.17,5.35,2.34,8.08,5.27,82.14,57.18,142.19,137.18,156.82C218.62,529.4,250.8,525.39,281.12,510.5Z"/><path class="cls-9" d="M265.62,207.37c-70.47-24.62-155.16,4.57-190.84,67.48H96.49c13.65,0,16.82,3.14,18.25,17.9-.75,0-2,.3-2.2,0-10.42-16.34-26.88-9.67-41.26-10.82-2.55-.2-5.14,0-7.71,0l-2.47-3,37.79-45c25.45-20.33,53.41-36.31,86.16-39.78,20.39-2.15,41.25.14,61.9.44,21.42,9.38,43.92,16.92,64,28.63,23.27,13.58,39.7,34.83,53.36,60.53-10,0-18.24.13-26.42,0-10.12-.19-20.86-2.13-24.82,12.41l-3.18-1.75c0-2.92-1.15-6.65.23-8.6,2.93-4.13,6.74-9.66,11-10.42,8.8-1.6,18.09-.49,28.81-.49a112.39,112.39,0,0,0-35.17-39C299.16,225.14,282,216.76,265.62,207.37Z"/><path class="cls-10" d="M305.32,304.87c-3.58-1.79-8.23-3-10.57-5.44-41.53-42.55-130.65-40.28-167.32,4.39l-5.87,1.1c0-1.39-.58-3,.15-4.14,1.49-2.39,3.69-4.54,5.6-6.8,24.77-21,55.7-31.88,94.52-29.84,29.45,1.54,52.78,11.75,72.82,26.61Q300,297.81,305.32,304.87Z"/><path class="cls-9" d="M238.51,435,240,397.73h5.27q.51,33.38,1,66.76-.76,6.21-1.54,12.44l-4.69,0Z"/><path class="cls-9" d="M183.23,409.72v71.54C176.18,475.84,175.14,418.88,183.23,409.72Z"/><path class="cls-9" d="M223.89,410.48c6.72-5.68,6.47.43,6.78,4.28.54,6.72.54,13.49.76,20.24L230,480.86l-5.59,0Q224.17,445.65,223.89,410.48Z"/><path class="cls-9" d="M254.13,464.58q.54-43.17,1.07-86.33l4.66-.1c.47,2.65,1.33,5.29,1.34,7.94.11,25.35.15,50.7,0,76.05,0,3.76,2.29,10.33-6.19,8Q254.56,467.37,254.13,464.58Z"/><path class="cls-9" d="M193,482.3c.64-30.19-1.25-60.41,1.27-90.58l4.15,0v90.58Z"/><path class="cls-9" d="M168.94,415.68c.68,20.33.25,40.67.26,61l-6.26.09c-.93-20.27-.2-40.58-.4-60.87Z"/><path class="cls-9" d="M213.35,401.93l2.46,5.79-1.05,74.87-4.62.11c-.5-2.65-1.41-5.29-1.43-7.94-.12-21.5-.24-43,.14-64.48C208.9,407.47,211.78,404.71,213.35,401.93Z"/><path class="cls-9" d="M148.57,471V406.12c2,1.5,4.87,2.61,4.88,3.74.19,20.37,0,40.75,0,61.12Z"/><path class="cls-9" d="M291,351.88l-38.72,29.75C236.91,367,239.49,342.23,203.45,339c-1.58,5.78-3.34,12.23-5.11,18.69-1.23,3.66-2.6,7.3-3.66,11-5.36,18.5-5.43,18.91-31.86,15.48-12-1.56-21-.21-31.47,5-7,3.49-18.73,2-31,3L89.68,404.52l-4.51-1.6,9.12-14.15-8.89-4.54c20.47,1.23,19.88-12.36,28-19.35,3-2.61,7.23-4.49,10.9-6.7,19.75,10.62,24.73-4.47,34.77-11.1l16.43,5.34c23.39-12.62,26.77-31.68,32-50.48,18.12,14.49,13.55,39.42,44.84,47.13,11.33-12.79,22.23-25.09,34.15-38.52,9.81,8.23,19.52,15.07,27,23,9.9,10.49,20,8.28,31.73,2.49,4.81-2.38,10.28-4,15.45-6l-3.36,6.76-27.08,10.15-.54,3.05,32.58,5.39c-13.51,2.22-26.81,6.35-37.25-4.65C318.65,344,302.8,345.18,291,351.88Zm-99.53-3.26-12.08,10.47-19.05-6c-5,4.76-8.25,10.69-14,12.63-5.35,1.78-13.43-1.19-20.29-1.13-2.71,0-6.23,2.19-7.9,4.07-4.35,4.91-7.88,10.21-11.74,15.35l2.09,3.25c7.38-1,16.42-.3,21.79-3.21,10.2-5.53,20-6.73,31.9-4.79,6.89,1.12,14.16,1,23.21,1.58l5.88-32.48,2.07.25-.4-1.42Zm123.71-6.52-28-23.59c-8.49,9.63-15.65,18.84-24.38,27.18-4.53,4.34-11.84,7.16-19.47,11.57,2,3.24,5.7,9.24,9.43,15.31C274.71,363.57,280.57,340.18,315.22,342.1Zm-90.52-2.7-12.78-22.29C202.7,332,202.71,332,224.7,339.4Z"/><path class="cls-9" d="M270.51,371.4c2.12,2,5.82,3.87,6.08,6.11.9,7.72.59,15.58.75,23.38l-1.11,61.57-5.72-.08Z"/><path class="cls-9" d="M116.61,462.24c3.58,1.78,8.23,3,10.57,5.43,41.53,42.56,130.65,40.29,167.31-4.38l5.87-1.1c0,1.39.59,3-.14,4.14a63.55,63.55,0,0,1-5.6,6.79c-24.77,21-55.7,31.88-94.52,29.85-29.45-1.54-52.78-11.75-72.82-26.61Z"/><ellipse class="cls-11" cx="215.81" cy="362.91" rx="212.75" ry="212.3"/><line class="cls-11" x1="476.39" y1="98.22" x2="476.39" y2="559.67"/></g></g></svg>